<?xml version="1.0" encoding="UTF-8" standalone="no" ?>
<svg
    viewBox="0 0 64 64"
    fill="none"
    version="1.1"
    id="svg9"
    sodipodi:docname="logo-3.svg"
    inkscape:version="1.4.2 (f4327f4, 2025-05-13)"
    xml:space="preserve"
    inkscape:export-filename="logo.png"
    inkscape:export-xdpi="192"
    inkscape:export-ydpi="192"
    xmlns:inkscape="http://www.inkscape.org/namespaces/inkscape"
    xmlns:sodipodi="http://sodipodi.sourceforge.net/DTD/sodipodi-0.dtd"
    xmlns="http://www.w3.org/2000/svg"
    xmlns:svg="http://www.w3.org/2000/svg"
><defs id="defs9"><inkscape:path-effect
            effect="fillet_chamfer"
            id="path-effect28"
            is_visible="true"
            lpeversion="1"
            nodesatellites_param="F,0,0,1,0,0,0,1 @ F,0,0,1,0,0.90474595,0,1 @ F,0,1,1,0,0,0,1"
            radius="0"
            unit="px"
            method="auto"
            mode="F"
            chamfer_steps="1"
            flexible="false"
            use_knot_distance="true"
            apply_no_radius="true"
            apply_with_radius="true"
            only_selected="false"
            hide_knots="false"
        /><linearGradient id="swatch17" inkscape:swatch="solid"><stop
                style="stop-color:#000000;stop-opacity:1;"
                offset="0"
                id="stop17"
            /></linearGradient></defs><sodipodi:namedview
        id="namedview9"
        pagecolor="#ffffff"
        bordercolor="#000000"
        borderopacity="0.25"
        inkscape:showpageshadow="2"
        inkscape:pageopacity="0.0"
        inkscape:pagecheckerboard="0"
        inkscape:deskcolor="#d1d1d1"
        showgrid="false"
        inkscape:zoom="5.6568543"
        inkscape:cx="-11.136932"
        inkscape:cy="43.045125"
        inkscape:window-width="2560"
        inkscape:window-height="1369"
        inkscape:window-x="-8"
        inkscape:window-y="468"
        inkscape:window-maximized="1"
        inkscape:current-layer="svg9"
        showguides="true"
        inkscape:export-bgcolor="#ffffff00"
    ><inkscape:grid
            id="grid10"
            units="px"
            originx="0"
            originy="0"
            spacingx="1"
            spacingy="1"
            empcolor="#0099e5"
            empopacity="0.30196078"
            color="#0099e5"
            opacity="0.14901961"
            empspacing="5"
            enabled="true"
            visible="false"
        /><sodipodi:guide
            position="-105.88924,-51.435182"
            orientation="0.80800759,0.58917207"
            id="guide28"
            inkscape:locked="false"
        /></sodipodi:namedview><rect
        style="display:inline;fill:#323232;fill-opacity:1;stroke:none;stroke-width:3;stroke-opacity:1"
        id="rect8"
        width="64"
        height="64"
        x="0"
        y="0"
        rx="14"
    /><g
        id="g26"
        transform="matrix(0.30284735,0,0,0.38045005,19.617216,16.180834)"
        style="display:inline"
    ><path
            style="fill:#171717;fill-opacity:1;stroke:none;stroke-width:3;stroke-opacity:1"
            d="m -11.0339,72.070835 c -0.850044,0.685518 -1.3162,7.677807 -0.43873,8.774637 0.87746,1.09683 19.0179052,6.948562 22.485,9.6521 0.714108,0.55684 1.3162,8.55527 -1.86461,10.858618 -3.1808,2.30334 -18.6461,-0.87746 -20.73008,1.20651 -2.08397,2.08398 -2.30334,8.33591 -0.43873,8.994 1.86461,0.6581 53.85433,0.21937 53.85433,0.21937 L 41.613914,71.083688 c 0,0 -51.797771,0.301629 -52.647814,0.987147 z"
            id="path25"
            sodipodi:nodetypes="zsssssccz"
        /><path
            style="fill:#171717;fill-opacity:1;stroke:none;stroke-width:3;stroke-opacity:1"
            d="m 92.809646,72.061698 c 0.850044,0.685518 1.3162,7.677807 0.43873,8.774637 -0.87746,1.09683 -19.017905,6.948562 -22.485,9.6521 -0.714108,0.55684 -1.3162,8.555266 1.86461,10.858615 3.1808,2.30334 18.6461,-0.87746 20.73008,1.20651 2.08397,2.08398 2.30334,8.33591 0.43873,8.994 -1.86461,0.6581 -53.85433,0.21937 -53.85433,0.21937 l 0.219366,-40.692379 c 0,0 51.797771,0.301629 52.647814,0.987147 z"
            id="path26-8"
            sodipodi:nodetypes="zsssssccz"
        /></g><g
        id="g10"
        transform="matrix(1.5666667,0,0,2.0595986,-19.386949,-63.824573)"
        style="display:none;fill:#171717;fill-opacity:1"
    ><rect
            x="22"
            y="56"
            width="20"
            height="3"
            rx="1"
            fill="#ffffff"
            id="rect1"
            style="fill:#171717;fill-opacity:1"
        /><rect
            x="24"
            y="52"
            width="16"
            height="5.2755737"
            rx="0.5"
            fill="#ffffff"
            id="rect2"
            style="fill:#171717;fill-opacity:1;stroke-width:1.14843"
        /></g><g
        id="g9"
        transform="matrix(0.60473795,0.82886509,-0.82886509,0.60473795,33.780433,-20.992259)"
        style="fill-opacity:1;stroke:#333333;stroke-opacity:1;fill:#d7521d"
        inkscape:transform-center-x="20.440935"
        inkscape:transform-center-y="18.342685"
    ><rect
            x="12"
            y="28"
            width="40"
            height="14"
            rx="3"
            id="rect3"
            style="fill-opacity:1;stroke:#333333;stroke-opacity:1;fill:#d7521d"
        /><rect
            x="29.33869"
            y="3.350431"
            width="5.3226223"
            height="28.649569"
            rx="2.3522973"
            id="rect4"
            style="fill-opacity:1;stroke:none;stroke-width:1.33066;stroke-opacity:1;fill:#d7521d"
        /><rect
            x="26"
            y="20"
            width="12"
            height="12"
            rx="2"
            id="rect5"
            style="fill-opacity:1;stroke:none;stroke-opacity:1;fill:#d7521d"
        /></g><g
        id="g8"
        style="fill:#d7521d;fill-opacity:1"
        transform="translate(0.75679606,-2.2364597)"
    ><path
            style="fill:#d7521d;fill-opacity:1;stroke:none;stroke-width:1.44725;stroke-opacity:1"
            d="m 43.734755,42.900629 c 0.846078,-1.139074 9.869288,0.741081 9.869288,0.741081 0,0 -8.360096,1.353004 -9.604043,0.552184 -0.414648,-0.266943 -0.547271,-0.913575 -0.265245,-1.293265 z"
            id="path6"
            sodipodi:nodetypes="scss"
        /><path
            style="fill:#d7521d;fill-opacity:1;stroke:none;stroke-width:2.09449;stroke-opacity:1"
            d="m 43.15757,38.062155 c 0.537415,-2.042704 13.149883,-3.72562 13.149883,-3.72562 0,0 -10.167422,5.994299 -12.171862,5.450172 -0.668149,-0.181372 -1.157157,-1.043652 -0.978021,-1.724552 z"
            id="path7"
            sodipodi:nodetypes="scss"
        /><path
            style="fill:#d7521d;fill-opacity:1;stroke:none;stroke-width:2.66832;stroke-opacity:1"
            d="m 41,33 c -0.477863,-2.494766 13.999586,-11.342656 13.999586,-11.342656 0,0 -9.094991,12.115606 -11.846605,12.649742 C 42.23578,34.485139 41.159287,33.831588 41,33 Z"
            id="path8"
            sodipodi:nodetypes="scss"
        /></g><g id="g32"><path
            style="fill:none;fill-opacity:1;stroke:#333333;stroke-width:1;stroke-opacity:1;stroke-dasharray:none;stroke-linecap:round"
            d="m 12.564324,18.962823 1.745045,2.404284"
            id="path26"
        /><path
            style="fill:none;fill-opacity:1;stroke:#333333;stroke-width:1;stroke-linecap:round;stroke-dasharray:none;stroke-opacity:1"
            d="M 21.306555,9.0324543 7.4636773,19.052327"
            id="path26-2"
            sodipodi:nodetypes="cc"
        /><path
            style="fill:none;fill-opacity:1;stroke:#333333;stroke-width:1;stroke-linecap:round;stroke-dasharray:none;stroke-opacity:1"
            d="m 15.309369,22.668735 13.02967,17.838238"
            id="path27"
            sodipodi:nodetypes="cc"
        /><path
            style="fill:none;fill-opacity:1;stroke:#333333;stroke-width:1;stroke-linecap:round;stroke-dasharray:none;stroke-opacity:1"
            d="m 33.000741,29.801491 c 0,0 3.723543,5.261875 5.180103,7.272827 0.292953,0.404457 0.80908,1.107377 0.723677,1.583789 -0.06129,0.341875 -0.229506,0.606952 -0.229506,0.606952"
            id="path28"
            sodipodi:nodetypes="czc"
            inkscape:path-effect="#path-effect28"
            inkscape:original-d="m 33.000741,29.801491 c 0,0 5.223819,7.38197 5.717114,8.000356 0.493295,0.618386 -0.04284,1.463212 -0.04284,1.463212"
        /><path
            style="fill:none;fill-opacity:1;stroke:#333333;stroke-width:1;stroke-linecap:round;stroke-dasharray:none;stroke-opacity:1"
            d="m 21.367107,18.594424 -2.016496,3.17986"
            id="path29"
        /><path
            style="fill:none;fill-opacity:1;stroke:#333333;stroke-width:1;stroke-linecap:round;stroke-dasharray:none;stroke-opacity:1"
            d="m 23.693834,21.677337 -2.016496,3.17986"
            id="path30"
        /><path
            style="fill:none;fill-opacity:1;stroke:#333333;stroke-width:1;stroke-linecap:round;stroke-dasharray:none;stroke-opacity:1"
            d="m 22.491692,20.135881 -2.016496,3.17986"
            id="path31"
        /><path
            style="fill:none;fill-opacity:1;stroke:#333333;stroke-width:0.998078;stroke-linecap:round;stroke-dasharray:none;stroke-opacity:1"
            d="M 33.823381,27.808891 31.639794,24.955547"
            id="path32"
        /><text
            xml:space="preserve"
            style="font-style:normal;font-variant:normal;font-weight:normal;font-stretch:normal;font-size:10.6667px;font-family:'IBM Plex Mono';-inkscape-font-specification:'IBM Plex Mono';text-align:start;writing-mode:lr-tb;direction:ltr;text-anchor:start;fill:#333333;fill-opacity:1;stroke:none;stroke-width:0;stroke-linecap:round;stroke-dasharray:none;stroke-opacity:1"
            x="-39.099434"
            y="20.02565"
            id="text32"
            transform="rotate(-126.54371)"
        ><tspan
                sodipodi:role="line"
                id="tspan32"
                x="-39.099434"
                y="20.02565"
            >V</tspan></text></g></svg>
