<?xml version="1.0" encoding="UTF-8" standalone="no"?>
<!-- Created with Inkscape (http://www.inkscape.org/) -->

<svg
   width="512"
   height="512"
   viewBox="0 0 135.46666 135.46667"
   version="1.1"
   id="svg1"
   xml:space="preserve"
   inkscape:version="1.4.2 (f4327f4, 2025-05-13)"
   sodipodi:docname="new-logo.svg"
   xmlns:inkscape="http://www.inkscape.org/namespaces/inkscape"
   xmlns:sodipodi="http://sodipodi.sourceforge.net/DTD/sodipodi-0.dtd"
   xmlns:xlink="http://www.w3.org/1999/xlink"
   xmlns="http://www.w3.org/2000/svg"
   xmlns:svg="http://www.w3.org/2000/svg"><sodipodi:namedview
     id="namedview1"
     pagecolor="#ffffff"
     bordercolor="#000000"
     borderopacity="0.25"
     inkscape:showpageshadow="2"
     inkscape:pageopacity="0.0"
     inkscape:pagecheckerboard="0"
     inkscape:deskcolor="#d1d1d1"
     inkscape:document-units="mm"
     inkscape:zoom="1.4702524"
     inkscape:cx="181.60148"
     inkscape:cy="181.94155"
     inkscape:window-width="2560"
     inkscape:window-height="1369"
     inkscape:window-x="-8"
     inkscape:window-y="468"
     inkscape:window-maximized="1"
     inkscape:current-layer="layer1" /><defs
     id="defs1"><linearGradient
       id="linearGradient6"
       inkscape:collect="always"><stop
         style="stop-color:#c9c9c9;stop-opacity:1;"
         offset="0"
         id="stop6" /><stop
         style="stop-color:#5e5e5e;stop-opacity:1;"
         offset="0.45365852"
         id="stop9" /><stop
         style="stop-color:#5e5e5e;stop-opacity:1;"
         offset="0.48484319"
         id="stop7" /><stop
         style="stop-color:#c9c9c9;stop-opacity:1;"
         offset="1"
         id="stop10" /></linearGradient><linearGradient
       inkscape:collect="always"
       xlink:href="#linearGradient6"
       id="linearGradient7"
       x1="29.712158"
       y1="29.712168"
       x2="105.75444"
       y2="105.75445"
       gradientUnits="userSpaceOnUse" /><radialGradient
       id="diamondGradient"
       cx="35%"
       cy="30%"
       r="75%"
       fx="30%"
       fy="25%"><stop
         style="stop-color:oklch(75% 0.15 40);stop-opacity:1;"
         offset="0" /><stop
         style="stop-color:oklch(65% 0.22 30);stop-opacity:1;"
         offset="0.45" /><stop
         style="stop-color:oklch(45% 0.15 25);stop-opacity:1;"
         offset="1" /></radialGradient></defs><g
     inkscape:label="Layer 1"
     inkscape:groupmode="layer"
     id="layer1"><rect
       style="fill:#171717;fill-opacity:1;stroke:none;stroke-width:0.529167;stroke-linecap:round;stroke-linejoin:round;stroke-dasharray:none;stroke-opacity:1;paint-order:markers stroke fill"
       id="rect24"
       width="135.46666"
       height="135.46666"
       x="0"
       y="0"
       ry="30.297173" /><g
       id="g27"><path
         style="fill:url(#diamondGradient);fill-opacity:1;stroke-width:0.52916667;stroke:none;stroke-opacity:1;stroke-dasharray:none;stroke-linecap:round;stroke-linejoin:round"
         d="M 72.721809,29.010189 C 75.37697,26.22457 78.117961,23.33301 78.812897,22.5845 L 80.076421,21.223575 79.617488,20.63208 C 79.0468,19.896549 74.266251,13.602472 70.642725,8.8159147 69.145204,6.8377362 67.892247,5.1852358 67.858376,5.1436777 c -0.08233,-0.1009898 -0.429928,0.3470369 -7.299929,9.4088393 -1.409064,1.858611 -3.135829,4.133839 -3.837264,5.05606 l -1.275333,1.676761 1.879394,1.95984 c 1.033664,1.07791 3.798353,3.961714 6.143741,6.408453 2.345388,2.446738 4.300553,4.442474 4.344805,4.434969 0.04427,-0.0074 2.252863,-2.292797 4.908019,-5.078411 z"
         id="path27" /><path
         style="fill:url(#linearGradient7);fill-opacity:1;stroke-width:0.52916667;stroke:none;stroke-opacity:1;stroke-dasharray:none;stroke-linecap:round;stroke-linejoin:round"
         d="m 89.376898,79.007803 c 0,-0.08449 1.348488,-2.890475 2.996633,-6.235595 1.648153,-3.345132 3.666821,-7.457902 4.485921,-9.139502 2.156599,-4.427407 7.679098,-15.58409 16.169748,-32.666497 7.29766,-14.682242 8.2096,-16.552423 8.2096,-16.836025 0,-0.07865 -3.4534,-0.140894 -7.81667,-0.140894 h -7.81667 l -1.9378,3.982737 c -3.10125,6.373923 -4.775589,9.80469 -7.048447,14.44245 -1.171109,2.389642 -2.764425,5.64825 -3.540703,7.241341 -0.776284,1.593099 -2.243382,4.598252 -3.260219,6.678127 -7.160131,14.645519 -15.88959,32.62657 -15.88959,32.729572 0,0.05384 3.475844,0.09787 7.724097,0.09787 4.795202,0 7.7241,-0.05822 7.7241,-0.153557 z"
         id="path26" /><path
         style="fill:url(#linearGradient7);fill-opacity:1;stroke-width:0.52916667;stroke:none;stroke-opacity:1;stroke-dasharray:none;stroke-linecap:round;stroke-linejoin:round"
         d="m 62.020716,79.073363 c 0,-0.136858 -2.245687,-4.846656 -5.674267,-11.900431 C 49.852654,53.812948 44.453931,42.761611 42.864683,39.575373 39.953336,33.738504 32.425991,18.48419 31.330903,16.201933 l -1.06168,-2.21263 h -8.020678 c -4.514248,0 -8.020679,0.06195 -8.020679,0.141691 0,0.07793 2.322083,4.730492 5.160183,10.339025 4.844517,9.573526 23.70672,47.367908 26.150618,52.398261 l 1.114053,2.293092 h 7.683998 c 4.2262,0 7.683998,-0.03964 7.683998,-0.08805 z"
         id="path25" /><path
         style="fill:url(#linearGradient7);fill-opacity:1;stroke-width:0.52916667;stroke:none;stroke-opacity:1;stroke-dasharray:none;stroke-linecap:round;stroke-linejoin:round"
         d="m 97.261311,130.21284 c 0.06636,0 -0.344297,-0.25728 -0.76436,-0.42422 -1.828845,-0.72678 -5.38542,-2.54867 -6.721277,-3.44302 -1.774176,-1.18783 -3.959657,-3.41435 -4.89222,-4.98407 -3.546334,-5.96937 -2.511146,-13.62031 2.484967,-18.36613 1.671439,-1.5877 2.572672,-2.13463 8.525685,-5.173975 2.832165,-1.445977 7.104564,-3.628942 9.494194,-4.851023 2.38965,-1.222081 6.9336,-3.543467 10.09766,-5.158621 3.16406,-1.615166 5.75284,-2.991229 5.75284,-3.057912 0,-0.06675 -24.08349,-0.121262 -53.51888,-0.121262 -37.768736,0 -53.502071,0.05041 -53.461779,0.171295 0.03138,0.09419 2.227946,1.275109 4.881204,2.624202 19.948546,10.143237 25.979874,13.274606 27.111338,14.075816 3.020232,2.13863 5.300069,5.53261 6.042659,8.99568 0.301853,1.40771 0.304573,4.93746 0.0048,6.33435 -0.26116,1.21727 -1.184689,3.53555 -1.80621,4.53405 -1.251055,2.00985 -3.163499,3.87625 -5.510596,5.37791 -1.080156,0.69108 -4.551166,2.41924 -5.943049,2.95895 -0.546993,0.21211 -0.994535,0.44033 -0.994535,0.50715 0,0.0669 13.324068,0.12151 29.609038,0.12151 16.284969,0 29.542058,-0.12068 29.608441,-0.12068 z"
         id="path2" /></g></g></svg>
